<svg xmlns="http://www.w3.org/2000/svg" xmlns:xlink="http://www.w3.org/1999/xlink" viewBox="0 0 1950 830"><defs><style>.cls-1{fill:none;}.cls-2{fill:#9dd6ba;}.cls-3{fill:#d8b79c;}.cls-4{fill:#edd2b9;}.cls-5{clip-path:url(#clip-path);}.cls-6{fill:#ccf1f4;}.cls-7{fill:#ff416c;}.cls-8{fill:#75008b;}.cls-9{clip-path:url(#clip-path-2);}.cls-10{fill:#e7ff17;}.cls-11{clip-path:url(#clip-path-3);}</style><clipPath id="clip-path"><path class="cls-1" d="M160.92,121.87c3.31,4.41-16,96.4,28.09,188.94s7.72,166.36-50.67,202.72-65,255.59,108,230.25c0,0,61.7-14.32,109.07-2.2,0,0,65-87,131.1-100.25,0,0-111.27-81.53-130-85.94,0,0-79.32-46.27-23.13-212.63,0,0,8.81-23.13,23.13-39.66s51.78-61.69-11-130L288.72,85.52s21.48,103,39.11,118.43-55.09-4.41-124.49-103.56C203.34,100.39,157.62,117.47,160.92,121.87Z"/></clipPath><clipPath id="clip-path-2"><path class="cls-1" d="M811.92,121.87c3.31,4.41-16,96.4,28.09,188.94s7.72,166.36-50.67,202.72-65,255.59,108,230.25c0,0,61.7-14.32,109.07-2.2,0,0,65-87,131.1-100.25,0,0-111.27-81.53-130-85.94,0,0-79.32-46.27-23.13-212.63,0,0,8.81-23.13,23.13-39.66s51.78-61.69-11-130L939.72,85.52s21.48,103,39.11,118.43-55.09-4.41-124.49-103.56C854.34,100.39,808.62,117.47,811.92,121.87Z"/></clipPath><clipPath id="clip-path-3"><path class="cls-1" d="M1461.92,121.87c3.31,4.41-16,96.4,28.09,188.94s7.72,166.36-50.67,202.72-65,255.59,108,230.25c0,0,61.7-14.32,109.07-2.2,0,0,65-87,131.1-100.25,0,0-111.27-81.53-130-85.94,0,0-79.32-46.27-23.13-212.63,0,0,8.81-23.13,23.13-39.66s51.78-61.69-11-130l-56.74-87.58s21.48,103,39.11,118.43-55.09-4.41-124.49-103.56C1504.34,100.39,1458.62,117.47,1461.92,121.87Z"/></clipPath></defs><title>Artboard 2</title><g id="Layer_1" data-name="Layer 1"><rect class="cls-2" x="-0.73" y="0.67" width="650" height="830"/><path class="cls-3" d="M339.07,117.72s-14.33-26.54-29.89-30.31c-24-5.82-31.21,11.49-3.37,87.05,42.63,146.91,66.81,68.69,65.32,179.27s.59,115.8-18.21,133-37,37.65-11.37,28.12,11.92,12.28,11.92,12.28-11,24.67,5.49,22.55c0,0,8.14-1.6,7.66-9.38s3.55-14.2,6.32-.12c0,0-4.14,16.57,8.87,12.89s3.93-17.65,3.93-17.65-5.45-16.94,6.52,1c0,0,6.58,6.59,11.62,0s-5.45-16.94-5.45-16.94-18.5-18.86-4-57.74,29.93-143.21,12.86-187.08S379.87,193.53,339.07,117.72Z"/><path class="cls-3" d="M414.31,603.32s170.77,71.61,85.94,133.3c0,0-56.74,28.1-214.29,6.06,0,0-105.76-24.24-152-12.12,0,0-144.32,46.28-36.36-22,0,0,67.21-57.29,95.85-35.26,0,0,28.71,20.71,46.27,15.43,89.79-27,148.17-.67,148.17-.67Z"/><path class="cls-4" d="M379.06,656.2S549.82,727.81,465,789.5c0,0-56.74,28.1-214.28,6.06,0,0-105.76-24.23-152-12.11,0,0-144.32,46.27-36.35-22,0,0,67.2-57.29,95.85-35.25,0,0,28.71,20.7,46.27,15.42,89.79-27,148.17-.67,148.17-.67Z"/><path class="cls-4" d="M238,.68s33,84.84-44.07,103.56c-82,19.91,152.59,125.05,152.59,125.05s-36.91-66.65-57.84-143.77C286.13,62,296.38.67,296.38.67Z"/><g class="cls-5"><path class="cls-6" d="M160.92,121.87c3.31,4.41-16,96.4,28.09,188.94s7.72,166.36-50.67,202.72-65,255.59,108,230.25c0,0,61.7-14.32,109.07-2.2,0,0,65-87,131.1-100.25,0,0-111.27-81.53-130-85.94,0,0-79.32-46.27-23.13-212.63,0,0,8.81-23.13,23.13-39.66s51.78-61.69-11-130L288.72,85.52s21.48,103,39.11,118.43-55.09-4.41-124.49-103.56C203.34,100.39,157.62,117.47,160.92,121.87Z"/><path class="cls-7" d="M195.62,382.43s26.45,61.69,126.7-8.82,0,37.46,0,37.46S225.37,486,184.61,416.58,195.62,382.43,195.62,382.43Z"/></g><path class="cls-4" d="M132,158.26s56-127.09,49,35.35S133.69,281,163.15,394.74s28.63,119.7,52.38,132.72S263.2,557,234.37,553.62s-9.21,15.69-9.21,15.69,17.58,22.7,0,24.67c0,0-8.8.4-10.28-7.75s-7.24-13.77-6.55,1.47c0,0,8.46,16.06-5.9,15.54S193.94,586,193.94,586s1.34-18.86-6.5,2.65c0,0-5.12,8.45-12,2.89s1.35-18.86,1.35-18.86,14.34-24.15-10.49-60.61S99.25,371.77,105.8,322.17,109,246.83,132,158.26Z"/></g><g id="Layer_2" data-name="Layer 2"><rect class="cls-8" x="650.27" y="0.67" width="650" height="830"/><path class="cls-3" d="M938.86,141.78s-8.91-36-1.42-52.34c17.69-15.86,35.52-13.52,59,70.84,43.55,156.65-18,97.67,45.1,196.82s64.17,105,90.78,110.07,54.46,13.4,26,19.07-3.91,17.77-3.91,17.77,23.72,16.16,7.63,23.46c0,0-8.25,3.1-12.17-4.2s-11.14-10.86-5.77,3.42c0,0,13,12.67-.83,16.61s-13.41-13.77-13.41-13.77-4.54-18.35-5.36,4.52c0,0-2.27,9.63-10.52,6.46s-4.54-18.35-4.54-18.35,6.19-27.4-28.68-54.42S973.64,355,964.56,305.77,944.34,233.13,938.86,141.78Z"/><path class="cls-3" d="M1065.31,603.32s170.77,71.61,85.94,133.3c0,0-56.74,28.1-214.29,6.06,0,0-105.76-24.24-152-12.12,0,0-144.32,46.28-36.36-22,0,0,67.21-57.29,95.85-35.26,0,0,28.71,20.71,46.27,15.43,89.79-27,148.17-.67,148.17-.67Z"/><path class="cls-4" d="M1030.06,656.2s170.76,71.61,85.93,133.3c0,0-56.74,28.1-214.28,6.06,0,0-105.76-24.23-152-12.11,0,0-144.32,46.27-36.35-22,0,0,67.2-57.29,95.85-35.25,0,0,28.71,20.7,46.27,15.42,89.79-27,148.17-.67,148.17-.67Z"/><path class="cls-4" d="M889,.68S922.09,85.52,845,104.24c-82,19.91,152.59,125.05,152.59,125.05s-36.91-66.65-57.84-143.77C937.13,62,947.38.67,947.38.67Z"/><g class="cls-9"><path class="cls-6" d="M811.92,121.87c3.31,4.41-16,96.4,28.09,188.94s7.72,166.36-50.67,202.72-65,255.59,108,230.25c0,0,61.7-14.32,109.07-2.2,0,0,65-87,131.1-100.25,0,0-111.27-81.53-130-85.94,0,0-79.32-46.27-23.13-212.63,0,0,8.81-23.13,23.13-39.66s51.78-61.69-11-130L939.72,85.52s21.48,103,39.11,118.43-55.09-4.41-124.49-103.56C854.34,100.39,808.62,117.47,811.92,121.87Z"/><path class="cls-7" d="M846.62,382.43s26.45,61.69,126.7-8.82,0,37.46,0,37.46-97,74.92-137.71,5.51S846.62,382.43,846.62,382.43Z"/></g><path class="cls-4" d="M794.28,165s26.92-136.23,55.57,23.82S822.72,284.38,876.27,389s54,110.59,80,118.11,53,18.45,24.09,21.43-5.56,17.32-5.56,17.32,22.1,18.32,5.39,24.08c0,0-8.5,2.31-11.72-5.33s-10.07-11.86-6.07,2.86c0,0,11.75,13.84-2.38,16.46S948,569,948,569s-2.79-18.7-5.76,4c0,0-3.16,9.38-11.08,5.45s-2.8-18.7-2.8-18.7,8.73-26.7-23.44-56.87-96-122.33-100.44-172.16S791.16,256.47,794.28,165Z"/></g><g id="Layer_3" data-name="Layer 3"><rect class="cls-10" x="1300.27" y="0.67" width="650" height="830"/><path class="cls-3" d="M1602.5,143.86s-19.87-31.37-17.92-49.2C1596.33,74,1614,70.58,1663,143.17c90.92,134.8,13.83,98.36,105.11,172.4s94.13,79.3,121,75.66,55.9-4.55,30.7,9.86,1.91,18.09,1.91,18.09,27.62,7.82,14.67,19.84c0,0-6.84,5.55-12.87-.14s-14-6.77-4.4,5.08c0,0,16.34,7.9,4.48,16s-17.08-8.81-17.08-8.81-10.12-16-3.65,6c0,0,.9,9.85-7.93,9.45s-10.12-16-10.12-16-2.82-27.94-44.44-42.53S1703,335.05,1678.82,291.26,1636.63,228.76,1602.5,143.86Z"/><path class="cls-3" d="M1715.31,603.32s170.77,71.61,85.94,133.3c0,0-56.74,28.1-214.29,6.06,0,0-105.76-24.24-152-12.12,0,0-144.32,46.28-36.36-22,0,0,67.21-57.29,95.85-35.26,0,0,28.71,20.71,46.27,15.43,89.79-27,148.17-.67,148.17-.67Z"/><path class="cls-4" d="M1680.06,656.2s170.76,71.61,85.93,133.3c0,0-56.74,28.1-214.28,6.06,0,0-105.76-24.23-152-12.11,0,0-144.32,46.27-36.35-22,0,0,67.2-57.29,95.85-35.25,0,0,28.71,20.7,46.27,15.42,89.79-27,148.17-.67,148.17-.67Z"/><path class="cls-4" d="M1539,.68s33,84.84-44.07,103.56c-82,19.91,152.59,125.05,152.59,125.05s-36.91-66.65-57.84-143.77C1587.13,62,1597.38.67,1597.38.67Z"/><g class="cls-11"><path class="cls-6" d="M1461.92,121.87c3.31,4.41-16,96.4,28.09,188.94s7.72,166.36-50.67,202.72-65,255.59,108,230.25c0,0,61.7-14.32,109.07-2.2,0,0,65-87,131.1-100.25,0,0-111.27-81.53-130-85.94,0,0-79.32-46.27-23.13-212.63,0,0,8.81-23.13,23.13-39.66s51.78-61.69-11-130l-56.74-87.58s21.48,103,39.11,118.43-55.09-4.41-124.49-103.56C1504.34,100.39,1458.62,117.47,1461.92,121.87Z"/><path class="cls-7" d="M1496.62,382.43s26.45,61.69,126.7-8.82,0,37.46,0,37.46-97,74.92-137.71,5.51S1496.62,382.43,1496.62,382.43Z"/></g><path class="cls-4" d="M1454.69,170.22s-.85-138.86,59.21,12.24-7.49,99,65.89,190.86,75,97.56,102,99.73,55.58,7.49,27.88,16.18-2,18.09-2,18.09,25.32,13.53,10.1,22.51c0,0-7.87,4-12.55-2.88s-12.24-9.6-5.38,4c0,0,14.28,11.21,1,16.6s-14.8-12.25-14.8-12.25-6.48-17.77-4.85,5.07c0,0-1.23,9.81-9.77,7.54s-6.48-17.76-6.48-17.76,3.22-27.9-34.33-51-118.53-100.67-132.82-148.62S1469.91,260.45,1454.69,170.22Z"/></g></svg>
