<svg id="Layer_1" data-name="Layer 1" xmlns="http://www.w3.org/2000/svg" viewBox="0 0 1600 400"><defs><style>.cls-1{fill:none;}.cls-2{fill:#ff8da7;stroke:#000;stroke-miterlimit:10;stroke-width:2px;}.cls-3{fill:#ffd9e2;}.cls-4{fill:#fff;}.cls-5{fill:#ffe579;}</style></defs><title>Artboard 1</title><rect class="cls-1" width="320" height="400"/><path class="cls-2" d="M20,0V219.74a130.26,130.26,0,0,0,260.52,0V0Z"/><path class="cls-3" d="M46.05,0V202.67c0,66.36,46.46,120.15,103.76,120.15S253.56,269,253.56,202.67V0Z"/><rect class="cls-4" x="75.5" y="62.3" width="149.51" height="18.12" rx="8" ry="8"/><path class="cls-4" d="M200.8,79.85c0,38.48-22.39,69.66-50,69.66s-50-31.18-50-69.66C100.77,60,200.8,61.17,200.8,79.85Z"/><path class="cls-5" d="M182.3,80.42a6.26,6.26,0,0,1,6,8.47c-6.22,15.53-20.92,47-38.07,47s-31.86-31.43-38.07-47a6.26,6.26,0,0,1,6-8.47Z"/><rect class="cls-4" x="75.5" y="217.48" width="149.51" height="18.12" rx="8" ry="8" transform="translate(300.52 453.07) rotate(180)"/><path class="cls-4" d="M99.72,218c0-38.47,22.39-69.66,50-69.66s50,31.19,50,69.66C199.75,237.86,99.72,236.73,99.72,218Z"/><path class="cls-2" d="M340,0V219.74a130.26,130.26,0,0,0,260.52,0V0Z"/><path class="cls-3" d="M366.05,0V202.67c0,66.36,46.46,120.15,103.76,120.15S573.56,269,573.56,202.67V0Z"/><rect class="cls-4" x="395.5" y="62.3" width="149.51" height="18.12" rx="8" ry="8"/><path class="cls-4" d="M520.8,79.85c0,38.48-22.39,69.66-50,69.66s-50-31.18-50-69.66C420.77,60,520.8,61.17,520.8,79.85Z"/><path class="cls-5" d="M502.3,89.48c4.53,0,7.67,3.67,6,7.09-6.22,13-20.92,39.28-38.07,39.28s-31.86-26.29-38.07-39.28c-1.64-3.42,1.5-7.09,6-7.09Z"/><rect class="cls-4" x="395.5" y="217.48" width="149.51" height="18.12" rx="8" ry="8" transform="translate(940.52 453.07) rotate(180)"/><path class="cls-4" d="M419.72,218c0-38.47,22.39-69.66,50-69.66s50,31.19,50,69.66C519.75,237.86,419.72,236.73,419.72,218Z"/><path class="cls-5" d="M441.38,217.48c-4,0-6.79-.9-5.34-1.74,5.51-3.17,18.54-9.59,33.73-9.59s28.23,6.42,33.74,9.59c1.45.84-1.33,1.74-5.35,1.74Z"/><rect class="cls-1" x="320" width="320" height="400"/><path class="cls-2" d="M660,0V219.74a130.26,130.26,0,0,0,260.52,0V0Z"/><path class="cls-3" d="M686.05,0V202.67c0,66.36,46.46,120.15,103.76,120.15S893.56,269,893.56,202.67V0Z"/><rect class="cls-4" x="715.5" y="62.3" width="149.51" height="18.12" rx="8" ry="8"/><path class="cls-4" d="M840.8,79.85c0,38.48-22.39,69.66-50,69.66s-50-31.18-50-69.66C740.77,60,840.8,61.17,840.8,79.85Z"/><path class="cls-5" d="M818.53,104.21c4,0,6.76,2.5,5.32,4.83-5.48,8.87-18.46,26.81-33.59,26.81S762.15,117.91,756.67,109c-1.45-2.33,1.32-4.83,5.32-4.83Z"/><rect class="cls-4" x="715.5" y="217.48" width="149.51" height="18.12" rx="8" ry="8" transform="translate(1580.52 453.07) rotate(180)"/><path class="cls-4" d="M739.72,218c0-38.47,22.39-69.66,50-69.66s50,31.19,50,69.66C839.75,237.86,739.72,236.73,739.72,218Z"/><path class="cls-5" d="M761.38,217.46c-4,0-6.79-2.51-5.34-4.84,5.51-8.88,18.54-26.86,33.73-26.86s28.23,18,33.74,26.86c1.45,2.33-1.33,4.84-5.35,4.84Z"/><rect class="cls-1" x="640" width="320" height="400"/><path class="cls-2" d="M980,0V219.74a130.26,130.26,0,1,0,260.52,0V0Z"/><path class="cls-3" d="M1006.05,0V202.67c0,66.36,46.46,120.15,103.76,120.15S1213.56,269,1213.56,202.67V0Z"/><rect class="cls-4" x="1035.5" y="62.3" width="149.51" height="18.12" rx="8" ry="8"/><path class="cls-4" d="M1160.8,79.85c0,38.48-22.39,69.66-50,69.66s-50-31.18-50-69.66C1060.77,60,1160.8,61.17,1160.8,79.85Z"/><path class="cls-5" d="M1133,120.06c3.13,0,5.3,1.25,4.17,2.42-4.3,4.42-14.46,13.37-26.31,13.37s-22-8.95-26.32-13.37c-1.13-1.17,1-2.42,4.17-2.42Z"/><rect class="cls-4" x="1035.5" y="217.48" width="149.51" height="18.12" rx="8" ry="8" transform="translate(2220.52 453.07) rotate(180)"/><path class="cls-4" d="M1059.72,218c0-38.47,22.39-69.66,50-69.66s50,31.19,50,69.66C1159.75,237.86,1059.72,236.73,1059.72,218Z"/><path class="cls-5" d="M1078.22,217.46c-4.53,0-7.67-3.4-6-6.57,6.21-12,20.92-36.46,38.07-36.46s31.85,24.41,38.07,36.46c1.64,3.17-1.5,6.57-6,6.57Z"/><rect class="cls-1" x="960" width="320" height="400"/><path class="cls-2" d="M1300,0V219.74a130.26,130.26,0,0,0,260.52,0V0Z"/><path class="cls-3" d="M1326.05,0V202.67c0,66.36,46.46,120.15,103.76,120.15S1533.56,269,1533.56,202.67V0Z"/><rect class="cls-4" x="1355.5" y="62.3" width="149.51" height="18.12" rx="8" ry="8"/><path class="cls-4" d="M1480.8,79.85c0,38.48-22.39,69.66-50,69.66s-50-31.18-50-69.66C1380.77,60,1480.8,61.17,1480.8,79.85Z"/><rect class="cls-4" x="1355.5" y="217.48" width="149.51" height="18.12" rx="8" ry="8" transform="translate(2860.52 453.07) rotate(180)"/><path class="cls-4" d="M1379.72,218c0-38.47,22.39-69.66,50-69.66s50,31.19,50,69.66C1479.75,237.86,1379.72,236.73,1379.72,218Z"/><path class="cls-5" d="M1398.22,217.46a6.71,6.71,0,0,1-6-9.17c6.21-16.81,20.92-50.85,38.07-50.85s31.85,34,38.07,50.85a6.71,6.71,0,0,1-6,9.17Z"/><rect class="cls-1" x="1280" width="320" height="400"/></svg>
