<svg id="Timer_knapper" data-name="Timer+knapper" xmlns="http://www.w3.org/2000/svg" viewBox="0 0 232 311"><defs><style>.cls-1{fill:#ff8da7;stroke:#000;stroke-miterlimit:10;stroke-width:2px;}.cls-2{fill:#ffd9e2;}.cls-3{fill:#fff;}.cls-4{fill:#ffe579;}</style></defs><title>timeglas</title><path class="cls-1" d="M99,0V194a115,115,0,0,0,230,0V0Z" transform="translate(-98 1)"/><path class="cls-2" d="M122,0V178.93C122,237.51,163,285,213.6,285s91.6-47.49,91.6-106.07V0Z" transform="translate(-98 1)"/><rect class="cls-3" x="50" y="56" width="132" height="16" rx="8" ry="8"/><path class="cls-3" d="M258.62,70.5c0,34-19.77,61.5-44.16,61.5s-44.15-27.53-44.15-61.5C170.31,53,258.62,54,258.62,70.5Z" transform="translate(-98 1)"/><path class="cls-4" d="M239.64,83c3.54,0,6,2.92,4.72,5.65C239.49,99,228,119.93,214.57,119.93S189.65,99,184.79,88.65C183.51,85.92,186,83,189.51,83Z" transform="translate(-98 1)"/><rect class="cls-3" x="148" y="192" width="132" height="16" rx="8" ry="8" transform="translate(330 401) rotate(180)"/><path class="cls-3" d="M169.38,192.5c0-34,19.77-61.5,44.16-61.5s44.15,27.53,44.15,61.5C257.69,210,169.38,209,169.38,192.5Z" transform="translate(-98 1)"/><path class="cls-4" d="M189.51,187c-3.55,0-6-1.5-4.72-2.9,4.86-5.33,16.36-16.1,29.78-16.1s24.92,10.77,29.79,16.1c1.28,1.4-1.18,2.9-4.72,2.9Z" transform="translate(-98 1)"/></svg>
